<svg width="423" height="119" viewBox="0 0 423 119" fill="none" xmlns="http://www.w3.org/2000/svg">
<rect width="1" height="423" transform="matrix(0 1 1 0 0 118)" fill="url(#paint0_linear_19_755)"/>
<rect width="1" height="423" transform="matrix(0 1 1 0 0 95)" fill="url(#paint1_linear_19_755)"/>
<rect width="1" height="423" transform="matrix(0 1 1 0 0 72)" fill="url(#paint2_linear_19_755)"/>
<rect width="1" height="423" transform="matrix(0 1 1 0 0 48)" fill="url(#paint3_linear_19_755)"/>
<rect width="1" height="423" transform="matrix(0 1 1 0 0 24)" fill="url(#paint4_linear_19_755)"/>
<rect width="1" height="423" transform="matrix(0 1 1 0 0 0)" fill="url(#paint5_linear_19_755)"/>
<defs>
<linearGradient id="paint0_linear_19_755" x1="0.5" y1="0" x2="0.5" y2="423" gradientUnits="userSpaceOnUse">
<stop stop-color="#C6D9E9" stop-opacity="0"/>
<stop offset="0.494792" stop-color="#C6D9E9"/>
<stop offset="1" stop-color="#C6D9E9" stop-opacity="0"/>
</linearGradient>
<linearGradient id="paint1_linear_19_755" x1="0.5" y1="0" x2="0.5" y2="423" gradientUnits="userSpaceOnUse">
<stop stop-color="#C6D9E9" stop-opacity="0"/>
<stop offset="0.494792" stop-color="#C6D9E9"/>
<stop offset="1" stop-color="#C6D9E9" stop-opacity="0"/>
</linearGradient>
<linearGradient id="paint2_linear_19_755" x1="0.5" y1="0" x2="0.5" y2="423" gradientUnits="userSpaceOnUse">
<stop stop-color="#C6D9E9" stop-opacity="0"/>
<stop offset="0.494792" stop-color="#C6D9E9"/>
<stop offset="1" stop-color="#C6D9E9" stop-opacity="0"/>
</linearGradient>
<linearGradient id="paint3_linear_19_755" x1="0.5" y1="0" x2="0.5" y2="423" gradientUnits="userSpaceOnUse">
<stop stop-color="#C6D9E9" stop-opacity="0"/>
<stop offset="0.494792" stop-color="#C6D9E9"/>
<stop offset="1" stop-color="#C6D9E9" stop-opacity="0"/>
</linearGradient>
<linearGradient id="paint4_linear_19_755" x1="0.5" y1="0" x2="0.5" y2="423" gradientUnits="userSpaceOnUse">
<stop stop-color="#C6D9E9" stop-opacity="0"/>
<stop offset="0.494792" stop-color="#C6D9E9"/>
<stop offset="1" stop-color="#C6D9E9" stop-opacity="0"/>
</linearGradient>
<linearGradient id="paint5_linear_19_755" x1="0.5" y1="0" x2="0.5" y2="423" gradientUnits="userSpaceOnUse">
<stop stop-color="#C6D9E9" stop-opacity="0"/>
<stop offset="0.494792" stop-color="#C6D9E9"/>
<stop offset="1" stop-color="#C6D9E9" stop-opacity="0"/>
</linearGradient>
</defs>
</svg>
