<svg width="69" height="64" viewBox="0 0 69 64" fill="none" xmlns="http://www.w3.org/2000/svg">
<g clip-path="url(#clip0_107_1096)" filter="url(#filter0_bi_107_1096)">
<path d="M30.0027 1C30.0027 1 13.6572 6.61876 12.6662 7.06402C8.93161 8.73557 5.75261 11.4698 3.513 14.9367C1.27338 18.4036 0.0687405 22.4552 0.0444336 26.6024V53C0.0444336 53 16.3798 47.3812 17.3811 46.936C21.1228 45.2667 24.3093 42.5328 26.5563 39.064C28.8033 35.5953 30.0147 31.5398 30.0445 27.387V26.6024L30.0027 1Z" fill="#60AAFB" fill-opacity="0.2"/>
</g>
<path opacity="0.2" d="M58 10H44V52H58V10Z" fill="#355DFB"/>
<path d="M62 52H12" stroke="#355DFB" stroke-linecap="round" stroke-linejoin="round"/>
<path d="M30 52V22H44" stroke="#355DFB" stroke-linecap="round" stroke-linejoin="round"/>
<path d="M58 10H44V52H58V10Z" stroke="#355DFB" stroke-linecap="round" stroke-linejoin="round"/>
<path d="M16 52V34H30" stroke="#355DFB" stroke-linecap="round" stroke-linejoin="round"/>
<defs>
<filter id="filter0_bi_107_1096" x="-7" y="-6" width="44" height="66" filterUnits="userSpaceOnUse" color-interpolation-filters="sRGB">
<feFlood flood-opacity="0" result="BackgroundImageFix"/>
<feGaussianBlur in="BackgroundImageFix" stdDeviation="3.5"/>
<feComposite in2="SourceAlpha" operator="in" result="effect1_backgroundBlur_107_1096"/>
<feBlend mode="normal" in="SourceGraphic" in2="effect1_backgroundBlur_107_1096" result="shape"/>
<feColorMatrix in="SourceAlpha" type="matrix" values="0 0 0 0 0 0 0 0 0 0 0 0 0 0 0 0 0 0 127 0" result="hardAlpha"/>
<feOffset dx="0.2" dy="0.1"/>
<feGaussianBlur stdDeviation="0.5"/>
<feComposite in2="hardAlpha" operator="arithmetic" k2="-1" k3="1"/>
<feColorMatrix type="matrix" values="0 0 0 0 1 0 0 0 0 1 0 0 0 0 1 0 0 0 0.6 0"/>
<feBlend mode="normal" in2="shape" result="effect2_innerShadow_107_1096"/>
</filter>
<clipPath id="clip0_107_1096">
<rect width="30" height="52" fill="white" transform="translate(0 1)"/>
</clipPath>
</defs>
</svg>
