<svg width="392" height="120" viewBox="0 0 392 120" fill="none" xmlns="http://www.w3.org/2000/svg">
<rect width="1" height="361.132" transform="matrix(0 1 1 0 24.8682 118)" fill="url(#paint0_linear_94_1091)"/>
<rect width="1" height="361.132" transform="matrix(0 1 1 0 24.8682 95)" fill="url(#paint1_linear_94_1091)"/>
<rect width="1" height="361.132" transform="matrix(0 1 1 0 24.8682 72)" fill="url(#paint2_linear_94_1091)"/>
<rect width="1" height="361.132" transform="matrix(0 1 1 0 24.8682 48)" fill="url(#paint3_linear_94_1091)"/>
<rect width="1" height="361.132" transform="matrix(0 1 1 0 24.8682 24)" fill="url(#paint4_linear_94_1091)"/>
<rect width="1" height="361.132" transform="matrix(0 1 1 0 24.8682 0)" fill="url(#paint5_linear_94_1091)"/>
<path d="M26.9997 116L53 38.0004" stroke="#7C83A1" stroke-width="2" stroke-linecap="round"/>
<path d="M53 38L79 75" stroke="#7C83A1" stroke-width="2" stroke-linecap="round"/>
<path d="M79 75L105 61.9998" stroke="#7C83A1" stroke-width="2" stroke-linecap="round"/>
<path d="M105 62L131 95" stroke="#7C83A1" stroke-width="2" stroke-linecap="round"/>
<path d="M131 94.9999L157.001 72.9995" stroke="#7C83A1" stroke-width="2" stroke-linecap="round"/>
<path d="M157 73L183 110" stroke="#7C83A1" stroke-width="2" stroke-linecap="round"/>
<path d="M183 110L209.001 27" stroke="#7C83A1" stroke-width="2" stroke-linecap="round"/>
<path d="M209 27L235 56" stroke="#7C83A1" stroke-width="2" stroke-linecap="round"/>
<path d="M235 56L261 81" stroke="#7C83A1" stroke-width="2" stroke-linecap="round"/>
<path d="M261 80.9999L287 42.9993" stroke="#7C83A1" stroke-width="2" stroke-linecap="round"/>
<path d="M287 42.9999L312.999 118" stroke="#7C83A1" stroke-width="2" stroke-linecap="round"/>
<path d="M313 118L339 63.0001" stroke="#7C83A1" stroke-width="2" stroke-linecap="round"/>
<path d="M339 63L365 83.0002" stroke="#7C83A1" stroke-width="2" stroke-linecap="round"/>
<path d="M365 83.0001L387.999 67.9993" stroke="#7C83A1" stroke-width="2" stroke-linecap="round"/>
<circle cx="26.8682" cy="116" r="1" fill="white" stroke="#7C83A1" stroke-width="2"/>
<circle cx="53" cy="38" r="1" fill="white" stroke="#7C83A1" stroke-width="2"/>
<circle cx="79" cy="75" r="1" fill="white" stroke="#7C83A1" stroke-width="2"/>
<circle cx="105" cy="62" r="1" fill="white" stroke="#7C83A1" stroke-width="2"/>
<circle cx="131" cy="95" r="1" fill="white" stroke="#7C83A1" stroke-width="2"/>
<circle cx="157" cy="73" r="1" fill="white" stroke="#7C83A1" stroke-width="2"/>
<circle cx="183" cy="110" r="1" fill="white" stroke="#7C83A1" stroke-width="2"/>
<circle cx="209" cy="27" r="1" fill="white" stroke="#7C83A1" stroke-width="2"/>
<circle cx="235" cy="56" r="1" fill="white" stroke="#7C83A1" stroke-width="2"/>
<circle cx="261" cy="81" r="1" fill="white" stroke="#7C83A1" stroke-width="2"/>
<circle cx="287" cy="43" r="1" fill="white" stroke="#7C83A1" stroke-width="2"/>
<circle cx="313" cy="118" r="1" fill="white" stroke="#7C83A1" stroke-width="2"/>
<circle cx="339" cy="63" r="1" fill="white" stroke="#7C83A1" stroke-width="2"/>
<circle cx="365" cy="83" r="1" fill="white" stroke="#7C83A1" stroke-width="2"/>
<circle cx="388" cy="68" r="1" fill="white" stroke="#7C83A1" stroke-width="2"/>
<path d="M31 93L82 80" stroke="#0000DE" stroke-width="2" stroke-linecap="round"/>
<path d="M82 80L133 75" stroke="#0000DE" stroke-width="2" stroke-linecap="round"/>
<path d="M133 75L184 69" stroke="#0000DE" stroke-width="2" stroke-linecap="round"/>
<path d="M184 69L234.868 65" stroke="#0000DE" stroke-width="2" stroke-linecap="round"/>
<path d="M234.868 65L286 59" stroke="#0000DE" stroke-width="2" stroke-linecap="round"/>
<path d="M285.5 59L337 53" stroke="#0000DE" stroke-width="2" stroke-linecap="round"/>
<path d="M337 53L388 43.989" stroke="#0000DE" stroke-width="2" stroke-linecap="round"/>
<circle cx="30.8682" cy="93" r="3" fill="white" stroke="#0000DE" stroke-width="2"/>
<circle cx="81.8682" cy="80" r="3" fill="white" stroke="#0000DE" stroke-width="2"/>
<circle cx="132.868" cy="75" r="3" fill="white" stroke="#0000DE" stroke-width="2"/>
<circle cx="184" cy="69" r="3" fill="white" stroke="#0000DE" stroke-width="2"/>
<circle cx="234.868" cy="65" r="3" fill="white" stroke="#0000DE" stroke-width="2"/>
<circle cx="285.868" cy="59" r="3" fill="white" stroke="#0000DE" stroke-width="2"/>
<circle cx="336.868" cy="53" r="3" fill="white" stroke="#0000DE" stroke-width="2"/>
<circle cx="388" cy="44" r="3" fill="white" stroke="#0000DE" stroke-width="2"/>
<defs>
<linearGradient id="paint0_linear_94_1091" x1="0.5" y1="0" x2="0.5" y2="361.132" gradientUnits="userSpaceOnUse">
<stop stop-color="#C6D9E9" stop-opacity="0"/>
<stop offset="0.494792" stop-color="#C6D9E9"/>
<stop offset="1" stop-color="#C6D9E9" stop-opacity="0"/>
</linearGradient>
<linearGradient id="paint1_linear_94_1091" x1="0.5" y1="0" x2="0.5" y2="361.132" gradientUnits="userSpaceOnUse">
<stop stop-color="#C6D9E9" stop-opacity="0"/>
<stop offset="0.494792" stop-color="#C6D9E9"/>
<stop offset="1" stop-color="#C6D9E9" stop-opacity="0"/>
</linearGradient>
<linearGradient id="paint2_linear_94_1091" x1="0.5" y1="0" x2="0.5" y2="361.132" gradientUnits="userSpaceOnUse">
<stop stop-color="#C6D9E9" stop-opacity="0"/>
<stop offset="0.494792" stop-color="#C6D9E9"/>
<stop offset="1" stop-color="#C6D9E9" stop-opacity="0"/>
</linearGradient>
<linearGradient id="paint3_linear_94_1091" x1="0.5" y1="0" x2="0.5" y2="361.132" gradientUnits="userSpaceOnUse">
<stop stop-color="#C6D9E9" stop-opacity="0"/>
<stop offset="0.494792" stop-color="#C6D9E9"/>
<stop offset="1" stop-color="#C6D9E9" stop-opacity="0"/>
</linearGradient>
<linearGradient id="paint4_linear_94_1091" x1="0.5" y1="0" x2="0.5" y2="361.132" gradientUnits="userSpaceOnUse">
<stop stop-color="#C6D9E9" stop-opacity="0"/>
<stop offset="0.494792" stop-color="#C6D9E9"/>
<stop offset="1" stop-color="#C6D9E9" stop-opacity="0"/>
</linearGradient>
<linearGradient id="paint5_linear_94_1091" x1="0.5" y1="0" x2="0.5" y2="361.132" gradientUnits="userSpaceOnUse">
<stop stop-color="#C6D9E9" stop-opacity="0"/>
<stop offset="0.494792" stop-color="#C6D9E9"/>
<stop offset="1" stop-color="#C6D9E9" stop-opacity="0"/>
</linearGradient>
</defs>
</svg>
