<svg width="340" height="20" viewBox="0 0 340 20" fill="none" xmlns="http://www.w3.org/2000/svg">
<path d="M0 20C0 14.4142 0 11.6213 0.785633 9.37609C2.1928 5.35464 5.35464 2.1928 9.37609 0.785633C11.6213 0 14.4142 0 20 0H340C340 5.5858 340 8.3787 339.214 10.6239C337.807 14.6454 334.645 17.8072 330.624 19.2144C328.379 20 325.586 20 320 20H0Z" fill="#EAF0F7"/>
<path d="M0 20C0 14.4142 0 11.6213 0.785633 9.37609C2.1928 5.35464 5.35464 2.1928 9.37609 0.785633C11.6213 0 14.4142 0 20 0H76C76 5.5858 76 8.3787 75.2144 10.6239C73.8072 14.6454 70.6454 17.8072 66.6239 19.2144C64.3787 20 61.5858 20 56 20H0Z" fill="#9AA3C8"/>
</svg>
