<svg width="340" height="20" viewBox="0 0 340 20" fill="none" xmlns="http://www.w3.org/2000/svg">
<path d="M0 20C0 14.4142 0 11.6213 0.785633 9.37609C2.1928 5.35464 5.35464 2.1928 9.37609 0.785633C11.6213 0 14.4142 0 20 0H340C340 5.5858 340 8.3787 339.214 10.6239C337.807 14.6454 334.645 17.8072 330.624 19.2144C328.379 20 325.586 20 320 20H0Z" fill="#EAF0F7"/>
<path d="M0 20C0 14.4142 0 11.6213 0.785633 9.37609C2.1928 5.35464 5.35464 2.1928 9.37609 0.785633C11.6213 0 14.4142 0 20 0H276C276 5.5858 276 8.3787 275.214 10.6239C273.807 14.6454 270.645 17.8072 266.624 19.2144C264.379 20 261.586 20 256 20H0Z" fill="#355DFB"/>
</svg>
