<svg width="69" height="68" viewBox="0 0 69 68" fill="none" xmlns="http://www.w3.org/2000/svg">
<path d="M30.0027 0C30.0027 0 13.6572 5.61876 12.6662 6.06402C8.93161 7.73557 5.75261 10.4698 3.513 13.9367C1.27338 17.4036 0.0687405 21.4552 0.0444336 25.6024V52C0.0444336 52 16.3798 46.3812 17.3811 45.936C21.1228 44.2667 24.3093 41.5328 26.5563 38.064C28.8033 34.5953 30.0147 30.5398 30.0445 26.387V25.6024L30.0027 0Z" fill="#60AAFB" fill-opacity="0.2"/>
<path opacity="0.2" d="M55.6014 45.0209C50.2472 55.0712 40.1912 58.9549 37.614 59.8093C37.2161 59.9463 36.7838 59.9463 36.3859 59.8093C33.8088 58.9549 23.7526 55.0712 18.3984 45.0207L18.3992 45.0205L37 32L55.6005 45.0204L55.6014 45.0209Z" fill="#355DFB"/>
<path d="M15 30.6667V16C15 15.4696 15.2107 14.9609 15.5858 14.5858C15.9609 14.2107 16.4696 14 17 14H57C57.5304 14 58.0391 14.2107 58.4142 14.5858C58.7893 14.9609 59 15.4696 59 16V30.6667C59 51.6705 41.1735 58.6292 37.6141 59.8093C37.2161 59.9463 36.7839 59.9463 36.386 59.8093C32.8265 58.6292 15 51.6705 15 30.6667Z" stroke="#355DFB" stroke-linecap="round" stroke-linejoin="round"/>
<path d="M55.6007 45.0205L37.0002 32L18.3994 45.0205" stroke="#355DFB" stroke-linecap="round" stroke-linejoin="round"/>
</svg>
